HIERARCHY
ROOT joint_Root
{
	OFFSET 0.0 0.0 0.0
	CHANNELS 6 Xposition Yposition Zposition Zrotation Xrotation Yrotation 
	JOINT Hips
	{
		OFFSET 4.5925 91.4895 -427.239
		CHANNELS 6 Xposition Yposition Zposition Zrotation Xrotation Yrotation 
		JOINT Spine
		{
			OFFSET 15.7357 0.0 0.0
			CHANNELS 6 Xposition Yposition Zposition Zrotation Xrotation Yrotation 
			JOINT Chest
			{
				OFFSET 8.98455 -0.406207 0.0
				CHANNELS 6 Xposition Yposition Zposition Zrotation Xrotation Yrotation 
				JOINT Neck
				{
					OFFSET 16.3773 0.0 0.0
					CHANNELS 6 Xposition Yposition Zposition Zrotation Xrotation Yrotation 
					JOINT Head
					{
						OFFSET 6.45672 0.0 0.0
						CHANNELS 6 Xposition Yposition Zposition Zrotation Xrotation Yrotation 
						End Site
						{
							OFFSET 0.0 0.0 0.0
						}
					}
				}
				JOINT Shoulder_L
				{
					OFFSET 12.9942 -0.242716 4.98039
					CHANNELS 6 Xposition Yposition Zposition Zrotation Xrotation Yrotation 
					JOINT UpperArm_L
					{
						OFFSET 5.34809 0.0 0.0
						CHANNELS 6 Xposition Yposition Zposition Zrotation Xrotation Yrotation 
						JOINT LowerArm_L
						{
							OFFSET 24.3286 1.87007e-05 0.0
							CHANNELS 6 Xposition Yposition Zposition Zrotation Xrotation Yrotation 
							JOINT Hand_L
							{
								OFFSET 22.2916 0.0 0.0
								CHANNELS 6 Xposition Yposition Zposition Zrotation Xrotation Yrotation 
								End Site
								{
									OFFSET 0.0 0.0 0.0
								}
							}
						}
					}
				}
				JOINT Shoulder_R
				{
					OFFSET 12.9945 -0.242716 -4.98039
					CHANNELS 6 Xposition Yposition Zposition Zrotation Xrotation Yrotation 
					JOINT UpperArm_R
					{
						OFFSET -5.34813 0.0 0.0
						CHANNELS 6 Xposition Yposition Zposition Zrotation Xrotation Yrotation 
						JOINT LowerArm_R
						{
							OFFSET -24.3289 0.000322201 0.0
							CHANNELS 6 Xposition Yposition Zposition Zrotation Xrotation Yrotation 
							JOINT Hand_R
							{
								OFFSET -22.2915 -0.000108084 0.0
								CHANNELS 6 Xposition Yposition Zposition Zrotation Xrotation Yrotation 
								End Site
								{
									OFFSET 0.0 0.0 0.0
								}
							}
						}
					}
				}
			}
		}
		JOINT UpperLeg_L
		{
			OFFSET -2.19248 -6.46944 0.0
			CHANNELS 6 Xposition Yposition Zposition Zrotation Xrotation Yrotation 
			JOINT LowerLeg_L
			{
				OFFSET 39.0811 0.0 -1.23785e-05
				CHANNELS 6 Xposition Yposition Zposition Zrotation Xrotation Yrotation 
				JOINT Foot_L
				{
					OFFSET 40.9854 0.0 -1.26872e-05
					CHANNELS 6 Xposition Yposition Zposition Zrotation Xrotation Yrotation 
					JOINT Toes_L
					{
						OFFSET 11.7543 0.0 0.0
						CHANNELS 6 Xposition Yposition Zposition Zrotation Xrotation Yrotation 
						End Site
						{
							OFFSET 0.0 0.0 0.0
						}
					}
				}
			}
		}
		JOINT UpperLeg_R
		{
			OFFSET -2.19251 6.46944 0.0
			CHANNELS 6 Xposition Yposition Zposition Zrotation Xrotation Yrotation 
			JOINT LowerLeg_R
			{
				OFFSET -39.0811 -0.00228153 -0.0401928
				CHANNELS 6 Xposition Yposition Zposition Zrotation Xrotation Yrotation 
				JOINT Foot_R
				{
					OFFSET -40.9854 0.0 0.0
					CHANNELS 6 Xposition Yposition Zposition Zrotation Xrotation Yrotation 
					JOINT Toes_R
					{
						OFFSET -11.7543 0.0 0.0
						CHANNELS 6 Xposition Yposition Zposition Zrotation Xrotation Yrotation 
						End Site
						{
							OFFSET 0.0 0.0 0.0
						}
					}
				}
			}
		}
	}
}
MOTION
Frames:	9
Frame Time:	0.0333333
0.000000 0.000000 0.000000 0.000000 0.000000 -0.000000 3.820560 90.643100 0.925351 88.741000 -8.404360 11.667700 15.735700 0.000005 -0.000001 94.709100 83.889700 -97.119000 8.984550 -0.406207 -0.000000 4.440990 1.071380 -4.856030 16.377300 -0.000001 -0.000001 23.802200 -2.231110 3.730010 6.456720 -0.000001 -0.000000 13.990800 -3.956430 -11.525000 12.994200 -0.242716 4.980390 -90.719400 2.586710 -74.453000 5.348090 -0.000007 -0.000001 -64.070200 32.571200 -12.272600 24.328600 0.000019 0.000005 7.373750 22.129200 -18.959700 22.291600 -0.000001 0.000005 7.696320 5.224300 2.102520 12.994500 -0.242716 -4.980390 91.161000 -4.346260 -75.028000 -5.348130 -0.000001 -0.000004 -60.569100 -39.980600 -83.169800 -24.328900 0.000322 -0.000009 4.984070 1.971200 -68.480600 -22.291500 -0.000108 -0.000004 21.280000 5.415480 -3.447340 -2.192480 -6.469440 -0.000000 -175.694000 -16.371000 2.880890 39.081100 -0.000007 -0.000012 -0.100871 0.167047 31.125900 40.985400 -0.000006 -0.000013 2.569740 2.716750 -72.263300 11.754300 -0.000000 0.000003 -0.000211 -0.001937 -16.650500 -2.192510 6.469440 -0.000001 171.027000 18.824200 -177.549000 -39.081100 -0.002282 -0.040193 -0.133085 0.237006 29.918700 -40.985400 0.000008 0.000006 2.373600 17.333800 -69.794000 -11.754300 -0.000006 -0.000006 -0.003240 -0.043284 -18.333500
0.000000 0.000000 0.000000 0.000000 0.000000 -0.000000 3.768910 90.642800 0.929159 88.737200 -8.378880 11.683400 15.735700 0.000005 -0.000001 94.680300 83.877900 -97.077300 8.984550 -0.406207 -0.000000 4.464730 1.066310 -4.830260 16.377300 -0.000001 -0.000001 23.904600 -2.224780 3.804080 6.456720 -0.000001 -0.000000 14.047200 -4.018230 -11.574200 12.994200 -0.242716 4.980390 -90.738600 2.643720 -74.385700 5.348090 -0.000007 -0.000001 -63.964100 32.523600 -12.346600 24.328600 0.000019 0.000005 7.354650 22.088800 -18.944100 22.291600 -0.000001 0.000005 7.692940 5.224070 2.108330 12.994500 -0.242716 -4.980390 91.162600 -4.323470 -74.932900 -5.348130 -0.000001 -0.000004 -60.443700 -39.909000 -83.204200 -24.328900 0.000322 -0.000009 4.873690 1.944990 -68.301700 -22.291500 -0.000108 -0.000004 21.182100 5.415840 -3.459640 -2.192480 -6.469440 -0.000000 -175.642000 -16.380800 2.899930 39.081100 -0.000007 -0.000012 -0.100670 0.166653 31.135000 40.985400 -0.000006 -0.000013 2.546170 2.760350 -72.264900 11.754300 -0.000000 0.000003 -0.000214 -0.001962 -16.651400 -2.192510 6.469440 -0.000001 171.048000 18.864400 -177.515000 -39.081100 -0.002282 -0.040193 -0.133538 0.237714 29.926900 -40.985400 0.000008 0.000006 2.392380 17.318900 -69.817500 -11.754300 -0.000006 -0.000006 -0.003506 -0.046205 -18.452400
0.000000 0.000000 0.000000 0.000000 0.000000 -0.000000 3.713520 90.633300 0.945261 88.744100 -8.382360 11.728300 15.735700 0.000005 -0.000001 94.782800 83.831600 -97.177600 8.984550 -0.406207 -0.000000 4.555810 1.093790 -4.827960 16.377300 -0.000001 -0.000001 24.040900 -2.261620 3.778580 6.456720 -0.000001 -0.000000 14.025700 -4.098620 -11.474300 12.994200 -0.242716 4.980390 -90.771100 2.736950 -74.258900 5.348090 -0.000007 -0.000001 -63.772600 32.418500 -12.479500 24.328600 0.000019 0.000005 7.371420 22.029400 -19.029800 22.291600 -0.000001 0.000005 7.776980 5.224850 2.088210 12.994500 -0.242716 -4.980390 91.141600 -4.210690 -74.816200 -5.348130 -0.000001 -0.000004 -60.248200 -39.902800 -83.281800 -24.328900 0.000322 -0.000009 4.904250 1.971190 -68.161700 -22.291500 -0.000108 -0.000004 21.158500 5.417450 -3.513290 -2.192480 -6.469440 -0.000000 -175.599000 -16.342800 2.943930 39.081100 -0.000007 -0.000012 -0.104604 0.172889 31.175700 40.985400 -0.000006 -0.000013 2.496630 2.739270 -72.292500 11.754300 -0.000000 0.000003 -0.000217 -0.001983 -16.652200 -2.192510 6.469440 -0.000001 171.019000 18.895200 -177.462000 -39.081100 -0.002282 -0.040193 -0.143671 0.255010 29.956900 -40.985400 0.000008 0.000006 2.312510 17.395500 -69.821600 -11.754300 -0.000006 -0.000006 -0.003354 -0.044547 -18.384900
0.000000 0.000000 0.000000 0.000000 0.000000 -0.000000 3.660960 90.631000 0.959388 88.758900 -8.360180 11.819600 15.735700 0.000005 -0.000001 95.032000 83.749500 -97.433700 8.984550 -0.406207 -0.000000 4.716440 1.158280 -4.845790 16.377300 -0.000001 -0.000001 24.249400 -2.257640 3.802300 6.456720 -0.000001 -0.000000 13.901400 -4.192430 -11.367700 12.994200 -0.242716 4.980390 -90.834800 2.926840 -74.072500 5.348090 -0.000007 -0.000001 -63.403300 32.368900 -12.715900 24.328600 0.000019 0.000005 7.456070 22.033900 -19.231200 22.291600 -0.000001 0.000005 7.733480 5.224840 2.088680 12.994500 -0.242716 -4.980390 91.114700 -4.070930 -74.671800 -5.348130 -0.000001 -0.000004 -60.176100 -39.942300 -83.320400 -24.328900 0.000322 -0.000009 4.905690 1.967130 -68.208200 -22.291500 -0.000108 -0.000004 21.212200 5.418040 -3.533000 -2.192480 -6.469440 -0.000000 -175.538000 -16.353400 3.054360 39.081100 -0.000007 -0.000012 -0.104003 0.171906 31.174100 40.985400 -0.000006 -0.000013 2.473930 2.799590 -72.297700 11.754300 -0.000000 0.000003 -0.000220 -0.002004 -16.653000 -2.192510 6.469440 -0.000001 171.022000 18.821100 -177.358000 -39.081100 -0.002282 -0.040193 -0.143242 0.254057 29.977200 -40.985400 0.000008 0.000006 2.334780 17.323500 -69.868300 -11.754300 -0.000006 -0.000006 -0.003418 -0.045239 -18.413100
0.000000 0.000000 0.000000 0.000000 0.000000 -0.000000 3.600520 90.617100 0.963662 88.753400 -8.325900 11.896400 15.735700 0.000005 -0.000001 95.149000 83.656300 -97.562600 8.984550 -0.406207 -0.000000 4.900790 1.196660 -4.873020 16.377300 -0.000001 -0.000001 24.438300 -2.238460 3.819830 6.456720 -0.000001 -0.000000 13.848700 -4.236510 -11.239100 12.994200 -0.242716 4.980390 -90.905900 3.127840 -73.838400 5.348090 -0.000007 -0.000001 -62.961100 32.405700 -13.050500 24.328600 0.000019 0.000005 7.501340 22.025500 -19.347000 22.291600 -0.000001 0.000005 7.746850 5.224200 2.104970 12.994500 -0.242716 -4.980390 91.085000 -3.935220 -74.572800 -5.348130 -0.000001 -0.000004 -60.262300 -39.956100 -83.315300 -24.328900 0.000322 -0.000009 4.906050 1.944430 -68.437900 -22.291500 -0.000108 -0.000004 21.139400 5.418000 -3.531840 -2.192480 -6.469440 -0.000000 -175.481000 -16.296200 3.103490 39.081100 -0.000007 -0.000012 -0.104194 0.171707 31.250200 40.985400 -0.000006 -0.000013 2.434810 2.797690 -72.334900 11.754300 -0.000000 0.000003 -0.000202 -0.001863 -16.647800 -2.192510 6.469440 -0.000001 171.010000 18.884100 -177.288000 -39.081100 -0.002282 -0.040193 -0.148309 0.262130 30.044400 -40.985400 0.000008 0.000006 2.297710 17.325700 -69.897400 -11.754300 -0.000006 -0.000006 -0.003347 -0.044471 -18.381800
0.000000 0.000000 0.000000 0.000000 0.000000 -0.000000 3.547220 90.606000 0.970542 88.748500 -8.297590 11.968200 15.735700 0.000005 -0.000001 95.451900 83.567600 -97.890100 8.984550 -0.406207 -0.000000 5.073400 1.276940 -4.927600 16.377300 -0.000001 -0.000001 24.732600 -2.188470 3.851390 6.456720 -0.000001 -0.000000 13.776100 -4.286920 -11.096000 12.994200 -0.242716 4.980390 -90.986400 3.364260 -73.648400 5.348090 -0.000007 -0.000001 -62.516300 32.375200 -13.287400 24.328600 0.000019 0.000005 7.520510 21.890300 -19.498500 22.291600 -0.000001 0.000005 7.720090 5.227930 2.009240 12.994500 -0.242716 -4.980390 91.046200 -3.757580 -74.429600 -5.348130 -0.000001 -0.000004 -60.374400 -39.873100 -83.249300 -24.328900 0.000322 -0.000009 4.991950 1.954650 -68.675700 -22.291500 -0.000108 -0.000004 21.275200 5.415260 -3.439910 -2.192480 -6.469440 -0.000000 -175.397000 -16.295100 3.151390 39.081100 -0.000007 -0.000012 -0.107464 0.176624 31.317900 40.985400 -0.000006 -0.000013 2.402040 2.847590 -72.361900 11.754300 -0.000000 0.000003 -0.000223 -0.002033 -16.654000 -2.192510 6.469440 -0.000001 171.011000 18.888000 -177.219000 -39.081100 -0.002282 -0.040193 -0.152479 0.268913 30.083800 -40.985400 0.000008 0.000006 2.202190 17.343200 -69.896700 -11.754300 -0.000006 -0.000006 -0.003170 -0.042508 -18.301900
0.000000 0.000000 0.000000 0.000000 0.000000 -0.000000 3.484860 90.593000 0.990987 88.763200 -8.256390 12.067400 15.735700 0.000005 -0.000001 95.727500 83.471100 -98.208000 8.984550 -0.406207 -0.000000 5.262010 1.354380 -5.017960 16.377300 -0.000001 -0.000001 24.995900 -2.161480 3.895250 6.456720 -0.000001 -0.000000 13.791900 -4.311490 -10.970200 12.994200 -0.242716 4.980390 -91.060400 3.572110 -73.454800 5.348090 -0.000007 -0.000001 -62.135500 32.350900 -13.470300 24.328600 0.000019 0.000005 7.539700 21.788900 -19.625000 22.291600 -0.000001 0.000005 7.761850 5.229340 1.972480 12.994500 -0.242716 -4.980390 90.996200 -3.551450 -74.319500 -5.348130 -0.000001 -0.000004 -60.381000 -39.784400 -83.102300 -24.328900 0.000322 -0.000009 4.918130 1.913060 -68.802200 -22.291500 -0.000108 -0.000004 21.210900 5.417720 -3.522460 -2.192480 -6.469440 -0.000000 -175.325000 -16.288500 3.253920 39.081100 -0.000007 -0.000012 -0.111026 0.182127 31.367000 40.985400 -0.000006 -0.000013 2.371580 2.905530 -72.399500 11.754300 -0.000000 0.000003 -0.000222 -0.002018 -16.653500 -2.192510 6.469440 -0.000001 170.975000 18.914300 -177.111000 -39.081100 -0.002282 -0.040193 -0.158545 0.278606 30.153100 -40.985400 0.000008 0.000006 2.223670 17.332400 -69.968900 -11.754300 -0.000006 -0.000006 -0.003238 -0.043263 -18.332600
0.000000 0.000000 0.000000 0.000000 0.000000 -0.000000 3.419710 90.583700 1.012140 88.743300 -8.224600 12.177000 15.735700 0.000005 -0.000001 95.988000 83.368300 -98.492800 8.984550 -0.406207 -0.000000 5.462630 1.430690 -5.072450 16.377300 -0.000001 -0.000001 25.297100 -2.157010 3.893110 6.456720 -0.000001 -0.000000 13.755500 -4.390160 -10.907000 12.994200 -0.242716 4.980390 -91.131500 3.783680 -73.338000 5.348090 -0.000007 -0.000001 -61.864300 32.262200 -13.504000 24.328600 0.000019 0.000005 7.586930 21.756100 -19.765900 22.291600 -0.000001 0.000005 7.697600 5.229600 1.965720 12.994500 -0.242716 -4.980390 90.963400 -3.417550 -74.247100 -5.348130 -0.000001 -0.000004 -60.235400 -39.708200 -82.895700 -24.328900 0.000322 -0.000009 4.978490 1.943340 -68.735700 -22.291500 -0.000108 -0.000004 21.193700 5.417970 -3.530700 -2.192480 -6.469440 -0.000000 -175.235000 -16.230400 3.364650 39.081100 -0.000007 -0.000012 -0.109377 0.179074 31.416600 40.985400 -0.000006 -0.000013 2.336570 2.938150 -72.435000 11.754300 -0.000000 0.000003 -0.000219 -0.002001 -16.652800 -2.192510 6.469440 -0.000001 170.989000 18.911100 -176.979000 -39.081100 -0.002282 -0.040193 -0.157078 0.275594 30.197100 -40.985400 0.000008 0.000006 2.308290 17.292300 -70.050200 -11.754300 -0.000006 -0.000006 -0.003243 -0.043316 -18.334800
0.000000 0.000000 0.000000 0.000000 0.000000 -0.000000 3.375400 90.567400 1.034470 88.747000 -8.205410 12.319000 15.735700 0.000005 -0.000001 96.232000 83.243900 -98.767200 8.984550 -0.406207 -0.000000 5.706320 1.508650 -5.139900 16.377300 -0.000001 -0.000001 25.595600 -2.151630 3.874130 6.456720 -0.000001 -0.000000 13.706100 -4.430200 -10.901100 12.994200 -0.242716 4.980390 -91.187700 3.940670 -73.212400 5.348090 -0.000007 -0.000001 -61.687300 32.249900 -13.528600 24.328600 0.000019 0.000005 7.561920 21.657700 -19.783700 22.291600 -0.000001 0.000005 7.622460 5.229270 1.974370 12.994500 -0.242716 -4.980390 90.940600 -3.320620 -74.175300 -5.348130 -0.000001 -0.000004 -59.985200 -39.659900 -82.728300 -24.328900 0.000322 -0.000009 4.990810 1.973910 -68.480300 -22.291500 -0.000108 -0.000004 21.123000 5.416750 -3.489770 -2.192480 -6.469440 -0.000000 -175.179000 -16.182000 3.499130 39.081100 -0.000007 -0.000012 -0.108726 0.177552 31.481900 40.985400 -0.000006 -0.000013 2.295740 2.898560 -72.481900 11.754300 -0.000000 0.000003 -0.000226 -0.002051 -16.654600 -2.192510 6.469440 -0.000001 170.941000 18.928600 -176.835000 -39.081100 -0.002282 -0.040193 -0.162856 0.284753 30.264300 -40.985400 0.000008 0.000006 2.265980 17.322300 -70.090800 -11.754300 -0.000006 -0.000006 -0.002994 -0.040539 -18.221800
